<svg version="1.1" id="Layer_1" xmlns="http://www.w3.org/2000/svg" xmlns:xlink="http://www.w3.org/1999/xlink" x="0px" y="0px"
	 width="100%" viewBox="0 0 399 86" enable-background="new 0 0 399 86" xml:space="preserve">
<path fill="#000000" opacity="1.000000" stroke="none" 
	d="
M197.000000,1.000002 
	C263.333344,1.000000 329.666656,0.994156 395.999969,1.041699 
	C397.333557,1.042655 398.666656,1.666669 399.531342,2.499296 
	C373.172516,2.998590 347.282379,2.998590 321.476349,2.998590 
	C320.642365,11.983407 320.642365,11.984105 328.494629,11.984500 
	C340.814178,11.985121 353.133789,11.975152 365.453278,11.998082 
	C366.826935,12.000639 368.200256,12.187694 369.987305,12.319748 
	C366.821045,16.285191 364.028046,19.721245 361.302002,23.209629 
	C354.853119,31.461912 348.389404,39.703278 342.018890,48.015903 
	C335.252136,56.845516 328.776947,65.906548 321.788391,74.554504 
	C318.701385,78.374443 315.670563,81.740799 318.000000,87.000000 
	C316.611115,87.000000 315.222198,87.000000 313.420624,86.531357 
	C313.007935,58.476410 313.007935,30.890112 313.007935,3.379606 
	C307.961182,3.379606 303.574036,3.379606 298.775391,3.379606 
	C298.775391,19.633411 298.775391,35.509937 298.775391,52.357246 
	C292.409851,45.244240 286.734924,38.869434 281.022400,32.528503 
	C274.608856,25.409439 267.163757,18.971756 261.993683,11.046308 
	C256.178192,2.131464 248.768097,2.311771 240.000000,3.453292 
	C240.000000,31.486387 240.000000,59.243195 240.000000,87.000000 
	C226.645767,87.000000 213.291550,87.000000 199.129761,86.741554 
	C199.086151,85.902733 199.769165,85.124786 200.626923,84.773346 
	C207.278061,82.048302 213.175201,78.514183 218.517075,73.391159 
	C229.452850,62.903404 234.153748,43.218563 227.934372,28.828478 
	C222.420242,16.070223 212.771042,7.856762 199.774704,3.300135 
	C198.711670,2.927418 197.918533,1.784854 197.000000,1.000002 
z"/>
<path fill="#000000" opacity="1.000000" stroke="none" 
	d="
M65.000000,87.000000 
	C50.979103,87.000000 36.958210,87.000000 22.021059,86.715744 
	C21.403046,84.331131 21.943918,82.232544 21.959221,80.130142 
	C22.043558,68.543327 21.999533,56.955582 21.999533,44.866230 
	C33.627251,44.866230 44.682751,44.866230 55.524841,44.866230 
	C55.524841,41.636253 55.524841,38.933353 55.524841,35.813538 
	C44.149857,35.813538 33.237984,35.813538 22.350225,35.813538 
	C22.350225,27.663654 22.350225,19.950193 22.350225,11.815831 
	C34.942375,11.815831 47.187576,11.815831 59.665405,11.815831 
	C59.665405,8.686922 59.665405,5.991780 59.665405,3.000000 
	C39.888428,3.000000 20.444214,3.000000 1.000000,3.000000 
	C1.330753,2.333333 1.542532,1.216044 2.016277,1.090966 
	C3.104104,0.803756 4.319573,1.000000 5.483230,1.000000 
	C59.676380,1.000000 113.869530,1.000000 168.893036,1.255289 
	C164.080872,4.549298 158.397293,7.514549 152.804306,10.641860 
	C140.743759,17.385498 136.835526,29.007170 136.178192,41.514400 
	C135.112396,61.793571 146.511520,78.286903 166.159836,85.009384 
	C166.912186,85.266800 167.392776,86.318451 168.000000,87.000000 
	C158.312439,87.000000 148.624878,87.000000 138.124268,86.781471 
	C138.918243,84.892120 138.915588,83.697998 137.267365,81.617165 
	C129.842010,72.242928 122.746567,62.606647 115.573547,53.033840 
	C113.962944,50.884407 112.518578,48.610424 110.814583,46.126915 
	C113.990067,44.544502 116.736816,43.444084 119.179703,41.871601 
	C121.059021,40.661880 122.892120,39.094830 124.169159,37.280762 
	C133.299942,24.310291 125.758896,8.575129 112.130852,4.935218 
	C96.437935,0.743800 80.551369,4.281504 64.223076,2.725370 
	C64.223076,5.282077 64.223076,7.066836 64.223076,8.851595 
	C64.223061,28.668186 64.162323,48.485069 64.258698,68.301193 
	C64.289024,74.535187 64.741013,80.767120 65.000000,87.000000 
z"/>
<path fill="#C99C3E" opacity="1.000000" stroke="none" 
	d="
M65.468536,87.000000 
	C64.741013,80.767120 64.289024,74.535187 64.258698,68.301193 
	C64.162323,48.485069 64.223061,28.668186 64.223076,8.851595 
	C64.223076,7.066836 64.223076,5.282077 64.223076,2.725370 
	C80.551369,4.281504 96.437935,0.743800 112.130852,4.935218 
	C125.758896,8.575129 133.299942,24.310291 124.169159,37.280762 
	C122.892120,39.094830 121.059021,40.661880 119.179703,41.871601 
	C116.736816,43.444084 113.990067,44.544502 110.814583,46.126915 
	C112.518578,48.610424 113.962944,50.884407 115.573547,53.033840 
	C122.746567,62.606647 129.842010,72.242928 137.267365,81.617165 
	C138.915588,83.697998 138.918243,84.892120 137.655609,86.781471 
	C130.645752,87.000000 123.291496,87.000000 115.826820,86.779854 
	C110.081619,75.631027 89.536720,49.673046 86.000000,49.364491 
	C86.000000,61.925488 86.000000,74.462746 86.000000,87.000000 
	C79.312355,87.000000 72.624710,87.000000 65.468536,87.000000 
M86.004196,21.542969 
	C86.004196,27.640282 86.004196,33.737595 86.004196,39.838173 
	C94.063667,40.535324 100.488258,39.100597 104.469078,32.071304 
	C107.573730,26.589140 106.111397,21.617525 102.660034,16.942974 
	C98.390190,11.159856 92.390953,11.725153 86.004196,12.330696 
	C86.004196,15.278749 86.004196,17.918194 86.004196,21.542969 
z"/>
<path fill="#CA9E3F" opacity="1.000000" stroke="none" 
	d="
M168.468658,87.000000 
	C167.392776,86.318451 166.912186,85.266800 166.159836,85.009384 
	C146.511520,78.286903 135.112396,61.793571 136.178192,41.514400 
	C136.835526,29.007170 140.743759,17.385498 152.804306,10.641860 
	C158.397293,7.514549 164.080872,4.549298 169.361694,1.255289 
	C178.020889,1.000000 187.041794,1.000000 196.531342,1.000002 
	C197.918533,1.784854 198.711670,2.927418 199.774704,3.300135 
	C212.771042,7.856762 222.420242,16.070223 227.934372,28.828478 
	C234.153748,43.218563 229.452850,62.903404 218.517075,73.391159 
	C213.175201,78.514183 207.278061,82.048302 200.626923,84.773346 
	C199.769165,85.124786 199.086151,85.902733 198.661102,86.741554 
	C188.979111,87.000000 178.958206,87.000000 168.468658,87.000000 
M167.444458,17.038076 
	C157.104935,29.808077 157.618896,56.040062 166.111450,69.388863 
	C173.444031,80.914391 192.826889,81.513634 199.635910,69.726791 
	C208.079224,55.110836 207.822189,39.530285 202.569214,23.654047 
	C197.275146,7.653636 175.517960,6.020177 167.444458,17.038076 
z"/>
<path fill="#CA9E40" opacity="1.000000" stroke="none" 
	d="
M240.464645,87.000000 
	C240.000000,59.243195 240.000000,31.486387 240.000000,3.453292 
	C248.768097,2.311771 256.178192,2.131464 261.993683,11.046308 
	C267.163757,18.971756 274.608856,25.409439 281.022400,32.528503 
	C286.734924,38.869434 292.409851,45.244240 298.775391,52.357246 
	C298.775391,35.509937 298.775391,19.633411 298.775391,3.379606 
	C303.574036,3.379606 307.961182,3.379606 313.007935,3.379606 
	C313.007935,30.890112 313.007935,58.476410 313.003967,86.531357 
	C309.638702,87.000000 306.277435,87.000000 302.798340,86.780350 
	C286.802704,68.372528 270.924805,50.184361 255.046936,31.996195 
	C254.697952,32.242203 254.348984,32.488209 254.000000,32.734219 
	C254.000000,50.822811 254.000000,68.911407 254.000000,87.000000 
	C249.643097,87.000000 245.286194,87.000000 240.464645,87.000000 
z"/>
<path fill="#C99D3F" opacity="1.000000" stroke="none" 
	d="
M318.468658,87.000000 
	C315.670563,81.740799 318.701385,78.374443 321.788391,74.554504 
	C328.776947,65.906548 335.252136,56.845516 342.018890,48.015903 
	C348.389404,39.703278 354.853119,31.461912 361.302002,23.209629 
	C364.028046,19.721245 366.821045,16.285191 369.987305,12.319748 
	C368.200256,12.187694 366.826935,12.000639 365.453278,11.998082 
	C353.133789,11.975152 340.814178,11.985121 328.494629,11.984500 
	C320.642365,11.984105 320.642365,11.983407 321.476349,2.998590 
	C347.282379,2.998590 373.172516,2.998590 399.531342,2.999295 
	C400.000000,4.388889 400.000000,5.777778 399.776001,7.242435 
	C382.062164,29.595875 364.572357,51.873543 346.417053,74.998901 
	C355.469086,74.998901 363.230225,74.871460 370.985413,75.031189 
	C380.659485,75.230438 390.328705,75.666306 400.000000,76.000000 
	C400.000000,78.700012 400.000000,81.400032 399.670166,84.196625 
	C398.893524,85.195465 398.446747,86.097733 398.000000,87.000000 
	C371.645782,87.000000 345.291534,87.000000 318.468658,87.000000 
z"/>
<path fill="#CA9E40" opacity="1.000000" stroke="none" 
	d="
M1.000000,3.468657 
	C20.444214,3.000000 39.888428,3.000000 59.665405,3.000000 
	C59.665405,5.991780 59.665405,8.686922 59.665405,11.815831 
	C47.187576,11.815831 34.942375,11.815831 22.350225,11.815831 
	C22.350225,19.950193 22.350225,27.663654 22.350225,35.813538 
	C33.237984,35.813538 44.149857,35.813538 55.524841,35.813538 
	C55.524841,38.933353 55.524841,41.636253 55.524841,44.866230 
	C44.682751,44.866230 33.627251,44.866230 21.999533,44.866230 
	C21.999533,56.955582 22.043558,68.543327 21.959221,80.130142 
	C21.943918,82.232544 21.403046,84.331131 21.552402,86.715744 
	C15.029293,87.000000 8.058586,87.000000 1.000000,87.000000 
	C1.000000,59.312496 1.000000,31.624905 1.000000,3.468657 
z"/>
<path fill="#000000" opacity="1.000000" stroke="none" 
	d="
M400.000000,75.531342 
	C390.328705,75.666306 380.659485,75.230438 370.985413,75.031189 
	C363.230225,74.871460 355.469086,74.998901 346.417053,74.998901 
	C364.572357,51.873543 382.062164,29.595875 399.776001,7.659102 
	C400.000000,30.354227 400.000000,52.708454 400.000000,75.531342 
z"/>
<path fill="#000000" opacity="1.000000" stroke="none" 
	d="
M254.468658,87.000000 
	C254.000000,68.911407 254.000000,50.822811 254.000000,32.734219 
	C254.348984,32.488209 254.697952,32.242203 255.046936,31.996195 
	C270.924805,50.184361 286.802704,68.372528 302.340271,86.780350 
	C286.312439,87.000000 270.624878,87.000000 254.468658,87.000000 
z"/>
<path fill="#000000" opacity="1.000000" stroke="none" 
	d="
M86.468658,87.000000 
	C86.000000,74.462746 86.000000,61.925488 86.000000,49.364491 
	C89.536720,49.673046 110.081619,75.631027 115.358200,86.779854 
	C105.645775,87.000000 96.291542,87.000000 86.468658,87.000000 
z"/>
<path fill="#000000" opacity="1.000000" stroke="none" 
	d="
M398.500000,87.000000 
	C398.446747,86.097733 398.893524,85.195465 399.670166,84.646599 
	C399.666656,85.666664 399.333344,86.333336 398.500000,87.000000 
z"/>
<path fill="#000000" opacity="1.000000" stroke="none" 
	d="
M86.004196,21.050304 
	C86.004196,17.918194 86.004196,15.278749 86.004196,12.330696 
	C92.390953,11.725153 98.390190,11.159856 102.660034,16.942974 
	C106.111397,21.617525 107.573730,26.589140 104.469078,32.071304 
	C100.488258,39.100597 94.063667,40.535324 86.004196,39.838173 
	C86.004196,33.737595 86.004196,27.640282 86.004196,21.050304 
z"/>
<path fill="#000000" opacity="1.000000" stroke="none" 
	d="
M167.710724,16.784008 
	C175.517960,6.020177 197.275146,7.653636 202.569214,23.654047 
	C207.822189,39.530285 208.079224,55.110836 199.635910,69.726791 
	C192.826889,81.513634 173.444031,80.914391 166.111450,69.388863 
	C157.618896,56.040062 157.104935,29.808077 167.710724,16.784008 
z"/>
</svg>